# Blender v2.76 (sub 0) OBJ File: 'coolImg.blend'
# www.blender.org
o Cube
v 0.500000 0.500000 -0.500000
v 0.500000 -0.500000 -0.500000
v -0.500000 -0.500000 -0.500000
v -0.500000 0.500000 -0.500000
v 0.500000 -0.500000 0.500000
v -0.500000 -0.500000 0.500000
v -0.500000 0.500000 0.500000
v 0.500000 0.500000 -0.450000
v 0.500000 -0.450000 -0.450000
v -0.450000 -0.450000 -0.450000
v -0.450000 0.500000 -0.450000
v 0.500000 -0.450000 0.500000
v -0.450000 -0.450000 0.500000
v -0.450000 0.500000 0.500000
v -0.247924 -0.449999 -0.246965
v -0.277513 -0.449999 -0.213350
v -0.302660 -0.449999 -0.176126
v -0.322945 -0.449999 -0.135711
v -0.337951 -0.449999 -0.092523
v -0.347261 -0.449999 -0.046980
v -0.350457 -0.449999 0.000501
v -0.347261 -0.449999 0.047982
v -0.337951 -0.449999 0.093526
v -0.322945 -0.449999 0.136713
v -0.302660 -0.449999 0.177128
v -0.277514 -0.449999 0.214352
v -0.247924 -0.449999 0.247968
v -0.214308 -0.449999 0.277557
v -0.177084 -0.449999 0.302703
v -0.136670 -0.449999 0.322989
v -0.093482 -0.449999 0.337995
v -0.047939 -0.449999 0.347305
v -0.000457 -0.449999 0.350501
v 0.047024 -0.450000 0.347305
v 0.092567 -0.450000 0.337995
v 0.135755 -0.450000 0.322989
v 0.176170 -0.450000 0.302703
v 0.213393 -0.450000 0.277557
v 0.247009 -0.450000 0.247968
v 0.276599 -0.450001 0.214352
v 0.301745 -0.450000 0.177128
v 0.322030 -0.450000 0.136713
v 0.337036 -0.450000 0.093526
v 0.346346 -0.450000 0.047982
v 0.349543 -0.450000 0.000501
v 0.346346 -0.450000 -0.046980
v 0.337036 -0.450000 -0.092523
v 0.322030 -0.450000 -0.135711
v 0.301745 -0.450000 -0.176126
v 0.276599 -0.450000 -0.213350
v 0.247009 -0.450000 -0.246965
v 0.213394 -0.450000 -0.276555
v 0.176169 -0.450000 -0.301701
v 0.135755 -0.450000 -0.321986
v 0.092567 -0.450000 -0.336993
v 0.047024 -0.450000 -0.346303
v -0.000457 -0.450000 -0.349499
v -0.047939 -0.450000 -0.346303
v -0.093482 -0.450000 -0.336993
v -0.136670 -0.450000 -0.321986
v -0.177084 -0.450000 -0.301701
v -0.214308 -0.450000 -0.276555
v 0.248160 -0.499999 0.247571
v 0.277749 -0.499999 0.213956
v 0.302896 -0.499999 0.176732
v 0.323181 -0.499999 0.136317
v 0.338187 -0.499999 0.093129
v 0.347497 -0.499999 0.047586
v 0.350693 -0.499999 0.000105
v 0.347497 -0.499999 -0.047376
v 0.338187 -0.499999 -0.092920
v 0.323181 -0.499999 -0.136107
v 0.302896 -0.499999 -0.176522
v 0.277749 -0.499999 -0.213746
v 0.248160 -0.499999 -0.247362
v 0.214544 -0.499999 -0.276951
v 0.177320 -0.499999 -0.302098
v 0.136906 -0.499999 -0.322383
v 0.093718 -0.499999 -0.337389
v 0.048175 -0.499999 -0.346699
v 0.000693 -0.499999 -0.349895
v -0.046788 -0.499999 -0.346699
v -0.092331 -0.499999 -0.337389
v -0.135519 -0.499999 -0.322383
v -0.175934 -0.499999 -0.302098
v -0.213157 -0.499999 -0.276951
v -0.246773 -0.499999 -0.247362
v -0.276363 -0.499999 -0.213746
v -0.301509 -0.499999 -0.176522
v -0.321794 -0.499999 -0.136107
v -0.336800 -0.499999 -0.092920
v -0.346110 -0.499999 -0.047376
v -0.349307 -0.499999 0.000105
v -0.346110 -0.499999 0.047586
v -0.336800 -0.499999 0.093129
v -0.321794 -0.499999 0.136317
v -0.301509 -0.499999 0.176732
v -0.276363 -0.499999 0.213956
v -0.246773 -0.500000 0.247571
v -0.213158 -0.500000 0.277161
v -0.175934 -0.500000 0.302307
v -0.135519 -0.500000 0.322592
v -0.092331 -0.500000 0.337598
v -0.046788 -0.500000 0.346909
v 0.000693 -0.500000 0.350105
v 0.048175 -0.500000 0.346909
v 0.093718 -0.500000 0.337598
v 0.136906 -0.500000 0.322592
v 0.177320 -0.499999 0.302307
v 0.214544 -0.499999 0.277161
v -0.450000 -0.349763 -0.348922
v -0.450000 0.350237 -0.348922
v -0.450001 0.350237 0.351078
v -0.450001 -0.349763 0.351078
v -0.500000 0.352377 -0.354437
v -0.500000 0.352377 0.345562
v -0.499999 -0.347623 0.345563
v -0.500000 -0.347623 -0.354438
v -0.349146 -0.349763 -0.449999
v 0.350854 -0.349763 -0.450000
v 0.005126 0.350237 -0.449999
v 0.353255 -0.349737 -0.500000
v 0.007527 0.350263 -0.499999
v -0.346745 -0.349737 -0.500000
vn 0.000000 -0.000000 1.000000
vn -0.000000 1.000000 0.000000
vn 1.000000 -0.000000 -0.000000
vn -0.000000 -1.000000 0.000000
vn -1.000000 0.000000 0.000000
vn 0.000000 0.000000 -1.000000
vn 0.042800 0.999100 0.000000
vn -0.109600 -0.000000 0.994000
vn -0.042800 -0.999100 -0.000000
vn 0.109700 0.000000 -0.994000
vn 0.000000 1.000000 0.000500
vn 0.891400 -0.451200 0.042600
vn -0.895800 -0.442400 -0.043200
vn 0.893600 0.017000 0.448500
vn 0.828600 0.014600 0.559700
vn 0.750600 0.012000 0.660700
vn 0.944400 0.019100 0.328200
vn 0.979500 0.021000 0.200200
vn 0.997500 0.022400 0.067100
vn 0.997500 0.023500 -0.067100
vn 0.979500 0.024100 -0.200200
vn 0.893500 0.024100 -0.448500
vn 0.750400 0.022500 -0.660600
vn 0.200300 0.012400 -0.979700
vn -0.200300 0.003200 -0.979700
vn -0.328200 -0.000100 -0.944600
vn -0.559800 -0.006300 -0.828600
vn -0.750600 -0.012000 -0.660700
vn -0.893600 -0.017000 -0.448500
vn -0.979500 -0.021000 -0.200200
vn -0.997500 -0.023500 0.067100
vn -0.944300 -0.024300 0.328100
vn -0.828400 -0.023500 0.559600
vn -0.660600 -0.021200 0.750500
vn -0.328200 -0.015000 0.944500
vn 0.067200 -0.006400 0.997700
vn 0.559800 0.006300 0.828600
vn -0.109700 0.000000 0.994000
vn -0.895800 -0.442400 -0.043300
vn 0.997500 0.022400 0.067200
vn 0.944300 0.024300 -0.328100
vn 0.828400 0.023500 -0.559600
vn 0.660600 0.021200 -0.750500
vn 0.660600 0.021100 -0.750500
vn 0.559700 0.019500 -0.828500
vn 0.559700 0.019400 -0.828500
vn 0.328200 0.015000 -0.944500
vn 0.067200 0.009500 -0.997700
vn 0.448500 0.017400 -0.893600
vn -0.067200 0.006400 -0.997700
vn -0.448600 -0.003200 -0.893700
vn -0.660700 -0.009300 -0.750600
vn -0.828600 -0.014600 -0.559700
vn -0.828500 -0.014600 -0.559700
vn -0.944400 -0.019100 -0.328200
vn -0.997500 -0.022400 -0.067100
vn -0.979500 -0.024100 0.200200
vn -0.893500 -0.024100 0.448500
vn -0.750400 -0.022500 0.660600
vn -0.559700 -0.019500 0.828500
vn -0.559700 -0.019400 0.828500
vn -0.448500 -0.017400 0.893600
vn -0.200300 -0.012400 0.979700
vn -0.067200 -0.009500 0.997700
vn 0.200300 -0.003200 0.979700
vn 0.328200 0.000100 0.944600
vn 0.660700 0.009300 0.750600
vn 0.448600 0.003200 0.893700
s off
f 121//1 120//1 8//1
f 13//2 27//2 26//2
f 11//3 112//3 10//3
f 1//3 8//3 9//3
f 1//2 4//2 11//2
f 5//3 2//3 9//3
f 7//2 14//2 11//2
f 5//1 12//1 13//1
f 7//1 6//1 13//1
f 9//2 51//2 50//2
f 2//4 75//4 76//4
f 6//4 99//4 100//4
f 10//3 111//3 114//3
f 4//5 115//5 116//5
f 3//5 118//5 4//5
f 11//1 10//1 119//1
f 2//6 3//6 124//6
f 1//6 123//6 4//6
f 111//7 118//7 117//7
f 112//8 115//8 118//8
f 112//9 113//9 116//9
f 113//10 114//10 117//10
f 120//11 122//11 124//11
f 121//12 119//12 124//12
f 120//13 121//13 123//13
f 17//14 18//14 90//14
f 16//15 17//15 89//15
f 88//16 87//16 15//16
f 18//17 19//17 91//17
f 19//18 20//18 92//18
f 20//19 21//19 93//19
f 21//20 22//20 94//20
f 22//21 23//21 95//21
f 25//22 97//22 96//22
f 26//23 27//23 98//23
f 31//24 32//24 103//24
f 35//25 107//25 106//25
f 36//26 108//26 107//26
f 38//27 110//27 109//27
f 40//28 64//28 63//28
f 42//29 66//29 65//29
f 44//30 68//30 67//30
f 46//31 70//31 69//31
f 48//32 72//32 47//32
f 50//33 74//33 49//33
f 52//34 76//34 51//34
f 54//35 79//35 78//35
f 57//36 82//36 81//36
f 62//37 86//37 61//37
f 8//1 11//1 121//1
f 119//1 10//1 120//1
f 9//1 8//1 120//1
f 120//1 10//1 9//1
f 12//2 39//2 38//2
f 16//2 15//2 10//2
f 12//2 38//2 37//2
f 17//2 16//2 10//2
f 12//2 37//2 36//2
f 18//2 17//2 10//2
f 12//2 36//2 35//2
f 19//2 18//2 10//2
f 13//2 12//2 33//2
f 20//2 19//2 10//2
f 12//2 35//2 34//2
f 20//2 10//2 21//2
f 12//2 34//2 33//2
f 21//2 10//2 13//2
f 13//2 33//2 32//2
f 22//2 21//2 13//2
f 13//2 32//2 31//2
f 23//2 22//2 13//2
f 13//2 31//2 30//2
f 24//2 23//2 13//2
f 13//2 30//2 29//2
f 25//2 24//2 13//2
f 13//2 29//2 28//2
f 26//2 25//2 13//2
f 13//2 28//2 27//2
f 11//3 14//3 113//3
f 111//3 10//3 112//3
f 11//3 113//3 112//3
f 2//3 1//3 9//3
f 8//2 1//2 11//2
f 12//3 5//3 9//3
f 4//2 7//2 11//2
f 6//1 5//1 13//1
f 14//1 7//1 13//1
f 10//2 15//2 62//2
f 40//2 39//2 12//2
f 10//2 62//2 61//2
f 41//2 40//2 12//2
f 10//2 61//2 60//2
f 42//2 41//2 12//2
f 10//2 60//2 59//2
f 43//2 42//2 12//2
f 10//2 59//2 58//2
f 43//2 12//2 44//2
f 9//2 10//2 57//2
f 44//2 12//2 45//2
f 10//2 58//2 57//2
f 45//2 12//2 9//2
f 9//2 57//2 56//2
f 46//2 45//2 9//2
f 9//2 56//2 55//2
f 47//2 46//2 9//2
f 9//2 55//2 54//2
f 48//2 47//2 9//2
f 9//2 54//2 53//2
f 49//2 48//2 9//2
f 9//2 53//2 52//2
f 50//2 49//2 9//2
f 9//2 52//2 51//2
f 5//4 63//4 64//4
f 86//4 87//4 3//4
f 5//4 64//4 65//4
f 85//4 86//4 3//4
f 5//4 65//4 66//4
f 84//4 85//4 3//4
f 5//4 66//4 67//4
f 83//4 84//4 3//4
f 2//4 5//4 69//4
f 83//4 3//4 82//4
f 5//4 67//4 68//4
f 82//4 3//4 81//4
f 5//4 68//4 69//4
f 81//4 3//4 2//4
f 2//4 69//4 70//4
f 80//4 81//4 2//4
f 2//4 70//4 71//4
f 79//4 80//4 2//4
f 2//4 71//4 72//4
f 78//4 79//4 2//4
f 2//4 72//4 73//4
f 77//4 78//4 2//4
f 2//4 73//4 74//4
f 76//4 77//4 2//4
f 2//4 74//4 75//4
f 3//4 87//4 88//4
f 110//4 63//4 5//4
f 3//4 88//4 89//4
f 109//4 110//4 5//4
f 3//4 89//4 90//4
f 108//4 109//4 5//4
f 3//4 90//4 91//4
f 107//4 108//4 5//4
f 6//4 3//4 93//4
f 107//4 5//4 106//4
f 3//4 91//4 92//4
f 106//4 5//4 105//4
f 3//4 92//4 93//4
f 105//4 5//4 6//4
f 6//4 93//4 94//4
f 104//4 105//4 6//4
f 6//4 94//4 95//4
f 103//4 104//4 6//4
f 6//4 95//4 96//4
f 102//4 103//4 6//4
f 6//4 96//4 97//4
f 101//4 102//4 6//4
f 6//4 97//4 98//4
f 100//4 101//4 6//4
f 6//4 98//4 99//4
f 113//3 14//3 13//3
f 13//3 10//3 114//3
f 114//3 113//3 13//3
f 117//5 6//5 7//5
f 7//5 4//5 116//5
f 116//5 117//5 7//5
f 3//5 6//5 117//5
f 115//5 4//5 118//5
f 3//5 117//5 118//5
f 121//1 11//1 119//1
f 122//6 2//6 124//6
f 1//6 2//6 122//6
f 124//6 3//6 4//6
f 1//6 122//6 123//6
f 123//6 124//6 4//6
f 114//7 111//7 117//7
f 111//38 112//38 118//38
f 115//9 112//9 116//9
f 116//10 113//10 117//10
f 119//11 120//11 124//11
f 123//12 121//12 124//12
f 122//39 120//39 123//39
f 89//14 17//14 90//14
f 88//15 16//15 89//15
f 16//16 88//16 15//16
f 90//17 18//17 91//17
f 91//18 19//18 92//18
f 92//40 20//40 93//40
f 93//20 21//20 94//20
f 94//21 22//21 95//21
f 95//41 23//41 24//41
f 24//22 25//22 96//22
f 96//41 95//41 24//41
f 98//42 97//42 26//42
f 25//42 26//42 97//42
f 27//43 28//43 99//43
f 99//23 98//23 27//23
f 28//44 100//44 99//44
f 101//45 100//45 29//45
f 28//46 29//46 100//46
f 30//47 31//47 102//47
f 32//48 33//48 104//48
f 102//49 101//49 30//49
f 33//48 105//48 104//48
f 103//47 102//47 31//47
f 32//24 104//24 103//24
f 29//49 30//49 101//49
f 105//50 33//50 34//50
f 34//25 35//25 106//25
f 106//50 105//50 34//50
f 107//26 35//26 36//26
f 36//51 37//51 108//51
f 109//51 108//51 37//51
f 109//27 37//27 38//27
f 38//52 39//52 110//52
f 63//52 110//52 39//52
f 63//28 39//28 40//28
f 40//53 41//53 64//53
f 65//54 64//54 41//54
f 65//29 41//29 42//29
f 42//55 43//55 66//55
f 67//55 66//55 43//55
f 67//30 43//30 44//30
f 44//56 45//56 68//56
f 69//56 68//56 45//56
f 69//31 45//31 46//31
f 46//57 47//57 70//57
f 71//57 70//57 47//57
f 71//32 47//32 72//32
f 48//58 49//58 73//58
f 73//58 72//58 48//58
f 73//33 49//33 74//33
f 50//59 51//59 75//59
f 75//59 74//59 50//59
f 75//34 51//34 76//34
f 52//60 53//60 77//60
f 77//61 76//61 52//61
f 78//62 77//62 53//62
f 55//63 56//63 80//63
f 78//62 53//62 54//62
f 54//35 55//35 79//35
f 80//63 79//63 55//63
f 81//64 80//64 56//64
f 58//65 59//65 83//65
f 81//64 56//64 57//64
f 57//36 58//36 82//36
f 83//65 82//65 58//65
f 84//66 83//66 59//66
f 59//66 60//66 84//66
f 61//37 86//37 85//37
f 15//67 87//67 62//67
f 85//68 84//68 60//68
f 87//67 86//67 62//67
f 60//68 61//68 85//68
