# Blender v2.76 (sub 0) OBJ File: 'cylinder.blend'
# www.blender.org
o Cylinder_Cylinder.003
v 0.000000 -0.500000 -0.500000
v 0.097545 -0.500000 -0.490393
v 0.191342 -0.500000 -0.461940
v 0.277785 -0.500000 -0.415735
v 0.353553 -0.500000 -0.353553
v 0.415735 -0.500000 -0.277785
v 0.461940 -0.500000 -0.191342
v 0.490393 -0.500000 -0.097545
v 0.500000 -0.500000 -0.000000
v 0.490393 -0.500000 0.097545
v 0.461940 -0.500000 0.191342
v 0.415735 -0.500000 0.277785
v 0.353553 -0.500000 0.353553
v 0.277785 -0.500000 0.415735
v 0.191342 -0.500000 0.461940
v 0.097545 -0.500000 0.490393
v -0.000000 -0.500000 0.500000
v -0.097545 -0.500000 0.490393
v -0.191342 -0.500000 0.461940
v -0.277785 -0.500000 0.415735
v -0.353554 -0.500000 0.353553
v -0.415735 -0.500000 0.277785
v -0.461940 -0.500000 0.191341
v -0.490393 -0.500000 0.097545
v -0.500000 -0.500000 -0.000000
v -0.490393 -0.500000 -0.097546
v -0.461940 -0.500000 -0.191342
v -0.415734 -0.500000 -0.277786
v -0.353553 -0.500000 -0.353554
v -0.277785 -0.500000 -0.415735
v -0.191341 -0.500000 -0.461940
v -0.097544 -0.500000 -0.490393
v 0.191342 0.031651 0.461940
v 0.097545 0.194192 0.490393
v 0.497584 -0.500000 0.024527
v -0.000000 0.363172 0.500000
v 0.490393 -0.487340 0.097545
v 0.461940 -0.437795 0.191342
v 0.415735 -0.357524 0.277785
v 0.353553 -0.249611 0.353553
v 0.277785 -0.118202 0.415735
v 0.097545 0.195204 -0.490393
v 0.191342 0.032733 -0.461940
v 0.277785 -0.117008 -0.415735
v 0.000000 0.364161 -0.500000
v 0.353553 -0.248265 -0.353553
v 0.415735 -0.355993 -0.277785
v 0.461940 -0.436053 -0.191342
v 0.490393 -0.485369 -0.097545
v 0.048773 -0.500000 -0.495196
v 0.097545 -0.152398 -0.490393
v 0.144443 -0.500000 -0.476166
v 0.191342 -0.233633 -0.461940
v 0.234563 -0.500000 -0.438837
v 0.277785 -0.308504 -0.415735
v 0.315669 -0.500000 -0.384644
v 0.353553 -0.374132 -0.353553
v 0.384644 -0.500000 -0.315669
v 0.415735 -0.427997 -0.277785
v 0.438837 -0.500000 -0.234563
v 0.461940 -0.468027 -0.191342
v 0.476166 -0.500000 -0.144443
v 0.490393 -0.492684 -0.097545
v 0.495196 -0.500000 -0.048773
v 0.493989 -0.500000 0.061036
v 0.490393 -0.493670 0.097545
v 0.476166 -0.500000 0.144443
v 0.461940 -0.468898 0.191342
v 0.438837 -0.500000 0.234563
v 0.415735 -0.428762 0.277785
v 0.384644 -0.500000 0.315669
v 0.353553 -0.374805 0.353553
v 0.315669 -0.500000 0.384644
v 0.277785 -0.309101 0.415735
v 0.234563 -0.500000 0.438837
v 0.191342 -0.234174 0.461940
v 0.144443 -0.500000 0.476166
v 0.097545 -0.152904 0.490393
v 0.048772 -0.500000 0.495196
v -0.000000 -0.068414 0.500000
v -0.048773 -0.500000 0.495196
v -0.097545 0.000000 0.490393
v -0.097544 0.000000 -0.490393
v -0.048772 -0.500000 -0.495196
v 0.384644 -0.303567 0.315669
v 0.493989 -0.493670 0.061036
v 0.048772 0.278682 0.495196
v 0.315669 -0.183906 0.384644
v 0.476166 -0.462567 0.144443
v 0.234563 -0.043275 0.438837
v 0.438837 -0.397660 0.234563
v 0.144443 0.112922 0.476166
v 0.000000 -0.067920 -0.500000
v 0.144443 0.113969 -0.476166
v 0.438837 -0.396023 -0.234563
v 0.234563 -0.042137 -0.438837
v 0.476166 -0.460711 -0.144443
v 0.384644 -0.302129 -0.315669
v 0.495196 -0.492684 -0.048773
v 0.048773 0.279682 -0.495196
v 0.315669 -0.182636 -0.384644
v 0.384644 -0.401064 -0.315669
v 0.048773 -0.110159 -0.495196
v 0.315669 -0.341318 -0.384644
v 0.476166 -0.480355 -0.144443
v 0.234563 -0.271069 -0.438837
v 0.438837 -0.448012 -0.234563
v 0.144443 -0.193016 -0.476166
v 0.048772 -0.110659 0.495196
v 0.144443 -0.193539 0.476166
v 0.234563 -0.271638 0.438837
v 0.315669 -0.341953 0.384644
v 0.384644 -0.401784 0.315669
v 0.438837 -0.448830 0.234563
v 0.476166 -0.481284 0.144443
v -0.461940 -0.437150 -0.191342
v -0.415734 -0.358070 -0.277786
v -0.097544 0.192676 -0.490393
v -0.277785 -0.119377 -0.415735
v -0.353553 -0.250502 -0.353554
v -0.191341 0.030265 -0.461940
v -0.490393 -0.485774 -0.097546
v -0.421360 -0.367796 -0.267260
v -0.353554 -0.247922 0.353553
v -0.498523 -0.500000 0.014994
v -0.415735 -0.355466 0.277785
v -0.097545 0.195213 0.490393
v -0.461940 -0.436261 0.191341
v -0.490393 -0.485927 0.097545
v -0.191342 0.032812 0.461940
v -0.277785 -0.116817 0.415735
v -0.421217 -0.364940 0.267528
vn 0.995200 0.000000 0.098000
vn 0.881900 0.000000 0.471400
vn 0.773000 0.000000 0.634400
vn 0.634400 0.000000 0.773000
vn 0.471400 0.000000 0.881900
vn 0.290300 0.000000 0.956900
vn 0.098000 0.000000 0.995200
vn 0.956900 0.000000 0.290300
vn -0.290300 0.000000 0.956900
vn -0.471400 0.000000 0.881900
vn -0.634400 0.000000 0.773000
vn -0.773000 0.000000 0.634400
vn -0.995200 0.000000 -0.098000
vn -0.956900 0.000000 -0.290300
vn -0.881900 0.000000 -0.471400
vn 0.000000 -1.000000 0.000000
vn -0.098000 0.000000 0.995200
vn 0.773000 0.000000 -0.634400
vn 0.471400 0.000000 -0.881900
vn 0.956900 0.000000 -0.290300
vn 0.634400 0.000000 -0.773000
vn 0.290300 0.000000 -0.956900
vn 0.881900 0.000000 -0.471400
vn 0.995200 0.000000 -0.098000
vn 0.098000 0.000000 -0.995200
vn -0.865100 0.501500 -0.001800
vn -0.634400 0.000000 -0.773000
vn -0.471400 0.000000 -0.881900
vn -0.098000 0.000000 -0.995200
vn -0.773000 0.000000 -0.634400
vn -0.290300 0.000000 -0.956900
vn -0.881900 0.000000 0.471400
vn -0.956900 0.000000 0.290300
vn -0.995200 0.000000 0.098000
vn 0.866300 0.499500 0.000700
vn -0.865800 0.500300 -0.001300
vn -0.864800 0.502200 0.000500
vn -0.866100 0.499900 -0.001400
vn -0.866200 0.499700 -0.001800
vn -0.866700 0.498800 -0.002400
vn -0.861400 0.507900 0.002000
vn -0.594000 0.802300 0.058500
vn -0.868600 0.495600 0.001100
vn -0.864400 0.502800 -0.002400
vn -0.865500 0.500900 -0.001500
vn -0.869200 0.494400 -0.001300
vn -0.865700 0.500600 -0.001400
vn -0.864300 0.503000 -0.002500
vn -0.865900 0.500200 -0.001200
vn -0.866500 0.499200 -0.002300
vn -0.866100 0.499800 -0.001500
vn -0.867900 0.496800 -0.001200
vn 0.865800 0.500400 0.001000
vn 0.865900 0.500200 0.000700
vn 0.866000 0.500000 0.000500
vn 0.866500 0.499200 0.001000
vn 0.866000 0.500000 0.000200
vn 0.866800 0.498700 0.001100
vn 0.866100 0.499900 0.000500
vn 0.866200 0.499700 0.000500
vn 0.866000 0.500100 0.000600
vn 0.866200 0.499700 0.000600
vn 0.865700 0.500600 0.001100
vn 0.877900 0.478600 -0.014700
vn 0.604700 0.794200 0.059600
vn 0.866000 0.500000 -0.001400
vn 0.901500 0.432500 0.013800
vn 0.854900 0.518800 0.003300
vn 0.866500 0.499200 0.000800
vn 0.865900 0.500200 0.000800
vn 0.883200 0.468800 0.013900
vn 0.868800 0.495200 0.003200
vn 0.866300 0.499500 0.000600
vn 0.867200 0.498000 0.001700
vn 0.865100 0.501600 0.001700
s off
f 35//1 86//1 65//1
f 68//2 114//2 69//2
f 70//3 113//3 71//3
f 72//4 112//4 73//4
f 74//5 111//5 75//5
f 76//6 110//6 77//6
f 78//7 109//7 79//7
f 66//8 115//8 67//8
f 82//9 130//9 19//9
f 19//10 130//10 131//10
f 20//11 131//11 124//11
f 21//12 124//12 126//12
f 26//13 25//13 122//13
f 122//14 116//14 27//14
f 116//15 123//15 28//15
f 52//16 73//16 84//16
f 80//17 82//17 18//17
f 47//18 59//18 102//18
f 53//19 106//19 3//19
f 61//20 105//20 7//20
f 55//21 104//21 4//21
f 51//22 108//22 2//22
f 59//23 107//23 6//23
f 46//21 57//21 104//21
f 64//24 99//24 9//24
f 49//20 63//20 105//20
f 42//25 51//25 103//25
f 44//19 55//19 106//19
f 48//23 61//23 107//23
f 93//25 103//25 1//25
f 57//18 102//18 5//18
f 43//22 53//22 108//22
f 87//7 80//7 109//7
f 92//6 78//6 110//6
f 126//26 124//26 120//26
f 90//5 76//5 111//5
f 88//4 74//4 112//4
f 85//3 72//3 113//3
f 91//2 70//2 114//2
f 10//1 86//1 66//1
f 63//24 99//24 64//24
f 120//27 119//27 30//27
f 119//28 121//28 31//28
f 83//29 93//29 32//29
f 117//30 120//30 29//30
f 121//31 83//31 31//31
f 132//32 128//32 22//32
f 23//33 128//33 129//33
f 24//34 129//34 125//34
f 89//8 68//8 115//8
f 44//35 90//35 41//35
f 69//2 11//2 68//2
f 68//2 38//2 114//2
f 91//2 114//2 38//2
f 71//3 12//3 70//3
f 70//3 39//3 113//3
f 85//3 113//3 39//3
f 73//4 13//4 72//4
f 72//4 40//4 112//4
f 88//4 112//4 40//4
f 75//5 14//5 74//5
f 74//5 41//5 111//5
f 90//5 111//5 41//5
f 77//6 15//6 76//6
f 76//6 33//6 110//6
f 92//6 110//6 33//6
f 79//7 16//7 78//7
f 78//7 34//7 109//7
f 87//7 109//7 34//7
f 67//8 10//8 66//8
f 66//8 37//8 115//8
f 89//8 115//8 37//8
f 19//9 18//9 82//9
f 82//9 127//9 130//9
f 20//10 19//10 131//10
f 21//11 20//11 124//11
f 22//12 21//12 126//12
f 26//14 122//14 27//14
f 28//15 27//15 116//15
f 123//15 117//15 28//15
f 84//16 1//16 50//16
f 50//16 2//16 52//16
f 52//16 3//16 54//16
f 54//16 4//16 56//16
f 56//16 5//16 58//16
f 58//16 6//16 60//16
f 60//16 7//16 62//16
f 62//16 8//16 64//16
f 64//16 9//16 35//16
f 35//16 65//16 64//16
f 10//16 67//16 65//16
f 69//16 12//16 71//16
f 67//16 11//16 69//16
f 64//16 71//16 73//16
f 60//16 62//16 64//16
f 56//16 58//16 52//16
f 52//16 54//16 56//16
f 84//16 50//16 52//16
f 31//16 32//16 84//16
f 29//16 30//16 84//16
f 27//16 28//16 125//16
f 25//16 26//16 125//16
f 24//16 125//16 23//16
f 22//16 23//16 125//16
f 20//16 21//16 81//16
f 18//16 19//16 81//16
f 79//16 17//16 81//16
f 81//16 19//16 20//16
f 21//16 22//16 81//16
f 125//16 26//16 27//16
f 28//16 29//16 84//16
f 31//16 84//16 30//16
f 52//16 58//16 60//16
f 60//16 64//16 73//16
f 67//16 64//16 65//16
f 71//16 13//16 73//16
f 73//16 14//16 75//16
f 75//16 15//16 77//16
f 77//16 16//16 79//16
f 79//16 81//16 84//16
f 22//16 125//16 81//16
f 28//16 84//16 125//16
f 52//16 60//16 73//16
f 69//16 64//16 67//16
f 73//16 75//16 77//16
f 77//16 79//16 84//16
f 125//16 84//16 81//16
f 69//16 71//16 64//16
f 73//16 77//16 84//16
f 81//17 17//17 80//17
f 80//17 36//17 127//17
f 127//17 82//17 80//17
f 18//17 81//17 80//17
f 58//18 102//18 59//18
f 98//18 47//18 102//18
f 59//18 6//18 58//18
f 54//19 3//19 106//19
f 53//19 43//19 96//19
f 96//19 106//19 53//19
f 62//20 7//20 105//20
f 61//20 48//20 97//20
f 97//20 105//20 61//20
f 56//21 4//21 104//21
f 55//21 44//21 101//21
f 101//21 104//21 55//21
f 52//22 2//22 108//22
f 51//22 42//22 94//22
f 94//22 108//22 51//22
f 60//23 6//23 107//23
f 59//23 47//23 95//23
f 95//23 107//23 59//23
f 56//21 104//21 57//21
f 101//21 46//21 104//21
f 57//21 5//21 56//21
f 62//20 105//20 63//20
f 97//20 49//20 105//20
f 63//20 8//20 62//20
f 50//25 103//25 51//25
f 100//25 42//25 103//25
f 51//25 2//25 50//25
f 54//19 106//19 55//19
f 96//19 44//19 106//19
f 55//19 4//19 54//19
f 60//23 107//23 61//23
f 95//23 48//23 107//23
f 61//23 7//23 60//23
f 50//25 1//25 103//25
f 93//25 45//25 100//25
f 100//25 103//25 93//25
f 58//18 5//18 102//18
f 57//18 46//18 98//18
f 98//18 102//18 57//18
f 52//22 108//22 53//22
f 94//22 43//22 108//22
f 53//22 3//22 52//22
f 79//7 109//7 17//7
f 87//7 36//7 80//7
f 80//7 17//7 109//7
f 77//6 110//6 16//6
f 92//6 34//6 78//6
f 78//6 16//6 110//6
f 130//36 127//36 118//36
f 36//37 45//37 127//37
f 118//38 121//38 130//38
f 119//39 120//39 124//39
f 117//40 123//40 132//40
f 116//41 122//41 125//41
f 25//42 125//42 122//42
f 129//43 128//43 125//43
f 132//44 126//44 117//44
f 124//45 131//45 119//45
f 127//46 45//46 118//46
f 121//47 131//47 130//47
f 123//48 116//48 132//48
f 125//49 128//49 116//49
f 126//50 120//50 117//50
f 121//51 119//51 131//51
f 116//52 128//52 132//52
f 75//5 111//5 15//5
f 90//5 33//5 76//5
f 76//5 15//5 111//5
f 73//4 112//4 14//4
f 88//4 41//4 74//4
f 74//4 14//4 112//4
f 71//3 113//3 13//3
f 85//3 40//3 72//3
f 72//3 13//3 113//3
f 69//2 114//2 12//2
f 91//2 39//2 70//2
f 70//2 12//2 114//2
f 37//1 66//1 86//1
f 10//1 65//1 86//1
f 64//24 8//24 63//24
f 63//24 49//24 99//24
f 29//27 120//27 30//27
f 30//28 119//28 31//28
f 84//29 32//29 93//29
f 83//29 118//29 93//29
f 45//29 93//29 118//29
f 1//29 84//29 93//29
f 28//30 117//30 29//30
f 32//31 31//31 83//31
f 121//31 118//31 83//31
f 23//32 22//32 128//32
f 126//32 132//32 22//32
f 24//33 23//33 129//33
f 67//8 115//8 11//8
f 89//8 38//8 68//8
f 68//8 11//8 115//8
f 46//53 40//53 98//53
f 44//54 41//54 101//54
f 43//55 94//55 92//55
f 100//55 45//55 36//55
f 94//55 42//55 34//55
f 88//56 40//56 46//56
f 95//57 47//57 98//57
f 98//58 40//58 85//58
f 42//55 100//55 87//55
f 36//59 87//59 100//59
f 34//60 92//60 94//60
f 90//61 44//61 96//61
f 92//62 33//62 43//62
f 42//59 87//59 34//59
f 95//63 98//63 85//63
f 97//57 48//57 95//57
f 99//64 49//64 97//64
f 35//65 9//65 99//65
f 89//66 37//66 86//66
f 86//67 35//67 99//67
f 99//68 97//68 89//68
f 41//69 88//69 101//69
f 33//61 96//61 43//61
f 88//70 46//70 101//70
f 85//66 39//66 91//66
f 91//66 38//66 89//66
f 89//71 86//71 99//71
f 97//72 91//72 89//72
f 90//73 96//73 33//73
f 85//74 91//74 95//74
f 97//75 95//75 91//75
